<svg width="410" height="367" viewBox="0 0 410 367" fill="none" xmlns="http://www.w3.org/2000/svg">
<path opacity="0.12" d="M204.482 366.216C286.358 366.216 352.732 360.241 352.732 352.872C352.732 345.502 286.358 339.528 204.482 339.528C122.606 339.528 56.2324 345.502 56.2324 352.872C56.2324 360.241 122.606 366.216 204.482 366.216Z" fill="#14213A"></path>
<path d="M69.0869 170.012L15.5093 187.422C6.94375 190.205 2.25616 199.406 5.03928 207.973C7.8224 216.539 17.0223 221.227 25.5879 218.444L79.1655 201.034C87.731 198.25 92.4186 189.049 89.6355 180.483C86.8524 171.916 77.6525 167.228 69.0869 170.012Z" fill="#163A78"></path>
<path d="M393.455 187.422L339.877 170.012C331.311 167.228 322.112 171.916 319.328 180.483C316.545 189.049 321.233 198.25 329.798 201.034L383.376 218.444C391.942 221.227 401.142 216.539 403.925 207.973C406.708 199.406 402.02 190.205 393.455 187.422Z" fill="#163A78"></path>
<path d="M180.762 314.323H124.427C116.24 314.323 109.602 320.961 109.602 329.149C109.602 337.338 116.24 343.976 124.427 343.976H180.762C188.95 343.976 195.587 337.338 195.587 329.149C195.587 320.961 188.95 314.323 180.762 314.323Z" fill="#0C2150"></path>
<path d="M284.537 314.323H228.202C220.014 314.323 213.377 320.961 213.377 329.149C213.377 337.338 220.014 343.976 228.202 343.976H284.537C292.724 343.976 299.362 337.338 299.362 329.149C299.362 320.961 292.724 314.323 284.537 314.323Z" fill="#0C2150"></path>
<path d="M251.922 0H157.042C101.366 0 56.2324 45.1389 56.2324 100.821V225.364C56.2324 281.045 101.366 326.184 157.042 326.184H251.922C307.598 326.184 352.732 281.045 352.732 225.364V100.821C352.732 45.1389 307.598 0 251.922 0Z" fill="#163A78"></path>
<path opacity="0.6" d="M216.342 148.265H192.622C151.684 148.265 118.497 181.456 118.497 222.398C118.497 263.34 151.684 296.531 192.622 296.531H216.342C257.28 296.531 290.467 263.34 290.467 222.398C290.467 181.456 257.28 148.265 216.342 148.265Z" fill="#1F4F9D"></path>
<path d="M348.284 123.06H343.836V155.679H348.284V123.06Z" fill="#A8C83C"></path>
<path d="M354.214 154.196H342.354C339.898 154.196 337.907 156.187 337.907 158.644V170.505C337.907 172.962 339.898 174.953 342.354 174.953H354.214C356.67 174.953 358.662 172.962 358.662 170.505V158.644C358.662 156.187 356.67 154.196 354.214 154.196Z" fill="#A8C83C"></path>
<path opacity="0.65" d="M136.287 176.436C146.112 176.436 154.077 171.789 154.077 166.057C154.077 160.325 146.112 155.679 136.287 155.679C126.462 155.679 118.497 160.325 118.497 166.057C118.497 171.789 126.462 176.436 136.287 176.436Z" fill="#A8C83C"></path>
<path opacity="0.65" d="M272.677 176.436C282.502 176.436 290.467 171.789 290.467 166.057C290.467 160.325 282.502 155.679 272.677 155.679C262.852 155.679 254.887 160.325 254.887 166.057C254.887 171.789 262.852 176.436 272.677 176.436Z" fill="#A8C83C"></path>
<path d="M170.384 97.8551C170.384 88.8478 163.083 81.5459 154.077 81.5459C145.071 81.5459 137.77 88.8478 137.77 97.8551V112.682C137.77 121.689 145.071 128.991 154.077 128.991C163.083 128.991 170.384 121.689 170.384 112.682V97.8551Z" fill="white"></path>
<path d="M271.194 97.8551C271.194 88.8478 263.893 81.5459 254.887 81.5459C245.881 81.5459 238.58 88.8478 238.58 97.8551V112.682C238.58 121.689 245.881 128.991 254.887 128.991C263.893 128.991 271.194 121.689 271.194 112.682V97.8551Z" fill="white"></path>
<path d="M154.077 111.199C158.171 111.199 161.49 107.88 161.49 103.786C161.49 99.6916 158.171 96.3726 154.077 96.3726C149.983 96.3726 146.665 99.6916 146.665 103.786C146.665 107.88 149.983 111.199 154.077 111.199Z" fill="#0C2150"></path>
<path d="M254.887 111.199C258.98 111.199 262.299 107.88 262.299 103.786C262.299 99.6916 258.98 96.3726 254.887 96.3726C250.793 96.3726 247.474 99.6916 247.474 103.786C247.474 107.88 250.793 111.199 254.887 111.199Z" fill="#0C2150"></path>
<path d="M186.692 170.505C198.552 179.401 210.412 179.401 222.272 170.505" stroke="white" stroke-width="8" stroke-linecap="round"></path>
<circle cx="351" cy="115" r="8" fill="white"></circle>
<path d="M357 115.5C357 111.91 354.09 109 350.5 109C346.91 109 344 111.91 344 115.5C344 119.09 346.91 122 350.5 122V131C341.94 131 335 124.06 335 115.5C335 106.94 341.94 100 350.5 100C359.06 100 366 106.94 366 115.5C366 124.06 359.06 131 350.5 131V122C354.09 122 357 119.09 357 115.5Z" fill="#A8C83C"></path>
</svg>