<svg width="350" height="160" viewBox="495 110 350 160" fill="none" xmlns="http://www.w3.org/2000/svg">
<path d="M740.595 153.525H787.758C790.942 153.525 793.595 154.586 795.718 156.709C797.84 158.832 798.902 161.485 798.902 164.669C798.902 167.72 797.84 170.307 795.718 172.43C793.595 174.42 790.942 175.415 787.758 175.415H740.595C737.411 175.415 734.757 174.354 732.635 172.231C730.512 170.108 729.451 167.455 729.451 164.271C729.451 161.22 730.512 158.699 732.635 156.709C734.757 154.586 737.411 153.525 740.595 153.525ZM761.888 128.65C765.337 128.65 768.123 129.844 770.246 132.232C772.501 134.487 773.629 137.34 773.629 140.789V229.344C773.629 231.201 773.96 232.727 774.624 233.921C775.42 235.115 776.415 235.977 777.609 236.508C778.935 237.039 780.328 237.304 781.788 237.304C783.38 237.304 784.839 237.039 786.166 236.508C787.492 235.845 789.018 235.513 790.743 235.513C792.6 235.513 794.258 236.375 795.718 238.1C797.31 239.825 798.106 242.213 798.106 245.264C798.106 248.979 796.049 252.03 791.937 254.418C787.957 256.806 783.645 258 779.002 258C776.216 258 773.098 257.801 769.649 257.403C766.332 256.872 763.148 255.745 760.097 254.02C757.178 252.163 754.724 249.377 752.734 245.662C750.744 241.947 749.749 236.84 749.749 230.339V140.789C749.749 137.34 750.876 134.487 753.132 132.232C755.52 129.844 758.438 128.65 761.888 128.65Z" fill="#273D7A"></path>
<path d="M659.168 153.525H706.331C709.515 153.525 712.168 154.586 714.291 156.709C716.414 158.832 717.475 161.485 717.475 164.669C717.475 167.72 716.414 170.307 714.291 172.43C712.168 174.42 709.515 175.415 706.331 175.415H659.168C655.984 175.415 653.331 174.354 651.208 172.231C649.085 170.108 648.024 167.455 648.024 164.271C648.024 161.22 649.085 158.699 651.208 156.709C653.331 154.586 655.984 153.525 659.168 153.525ZM680.461 128.65C683.91 128.65 686.696 129.844 688.819 132.232C691.074 134.487 692.202 137.34 692.202 140.789V229.344C692.202 231.201 692.534 232.727 693.197 233.921C693.993 235.115 694.988 235.977 696.182 236.508C697.509 237.039 698.902 237.304 700.361 237.304C701.953 237.304 703.412 237.039 704.739 236.508C706.066 235.845 707.591 235.513 709.316 235.513C711.173 235.513 712.832 236.375 714.291 238.1C715.883 239.825 716.679 242.213 716.679 245.264C716.679 248.979 714.623 252.03 710.51 254.418C706.53 256.806 702.218 258 697.575 258C694.789 258 691.671 257.801 688.222 257.403C684.905 256.872 681.721 255.745 678.67 254.02C675.751 252.163 673.297 249.377 671.307 245.662C669.317 241.947 668.322 236.84 668.322 230.339V140.789C668.322 137.34 669.45 134.487 671.705 132.232C674.093 129.844 677.012 128.65 680.461 128.65Z" fill="#273D7A"></path>
<path d="M637.121 188.35C637.121 198.3 635.463 207.587 632.146 216.21C628.829 224.833 624.12 232.462 618.017 239.095C612.047 245.596 604.883 250.703 596.525 254.418C588.3 258.133 579.278 259.99 569.461 259.99C559.644 259.99 550.622 258.133 542.397 254.418C534.172 250.703 527.008 245.596 520.905 239.095C514.935 232.462 510.292 224.833 506.975 216.21C503.658 207.587 502 198.3 502 188.35C502 178.4 503.658 169.113 506.975 160.49C510.292 151.867 514.935 144.305 520.905 137.804C527.008 131.171 534.172 125.997 542.397 122.282C550.622 118.567 559.644 116.71 569.461 116.71C579.278 116.71 588.3 118.567 596.525 122.282C604.883 125.997 612.047 131.171 618.017 137.804C624.12 144.305 628.829 151.867 632.146 160.49C635.463 169.113 637.121 178.4 637.121 188.35ZM611.251 188.35C611.251 179.461 609.46 171.435 605.878 164.271C602.296 156.974 597.387 151.203 591.152 146.958C584.917 142.713 577.686 140.59 569.461 140.59C561.236 140.59 554.005 142.713 547.77 146.958C541.535 151.203 536.626 156.908 533.044 164.072C529.595 171.236 527.87 179.329 527.87 188.35C527.87 197.239 529.595 205.331 533.044 212.628C536.626 219.792 541.535 225.497 547.77 229.742C554.005 233.987 561.236 236.11 569.461 236.11C577.686 236.11 584.917 233.987 591.152 229.742C597.387 225.497 602.296 219.792 605.878 212.628C609.46 205.331 611.251 197.239 611.251 188.35Z" fill="#273D7A"></path>
<path d="M836.04 245.5V165.5C836.04 163.567 834.473 162 832.54 162C830.607 162 829.04 163.567 829.04 165.5V245.5C829.04 247.433 830.607 249 832.54 249V258C825.744 258 820.215 252.577 820.044 245.822L820.04 245.5V165.5C820.04 158.596 825.636 153 832.54 153C839.444 153 845.04 158.596 845.04 165.5V245.5L845.036 245.822C844.865 252.577 839.336 258 832.54 258V249C834.473 249 836.04 247.433 836.04 245.5Z" fill="#A8C83C"></path>
<path d="M839.04 123.5C839.04 119.91 836.13 117 832.54 117C828.95 117 826.04 119.91 826.04 123.5C826.04 127.09 828.95 130 832.54 130V139C823.98 139 817.04 132.06 817.04 123.5C817.04 114.94 823.98 108 832.54 108C841.1 108 848.04 114.94 848.04 123.5C848.04 132.06 841.1 139 832.54 139V130C836.13 130 839.04 127.09 839.04 123.5Z" fill="#A8C83C"></path>
</svg>